Coordinates
version=1
nRows=11
nColumns=63
inDegrees=yes

Units are S.I. units (second, meters, Newtons, ...)
If the header above contains a line with 'inDegrees', this indicates whether rotational values are in degrees (yes) or radians (no).

endheader
time	pelvis_tilt	pelvis_list	pelvis_rotation	pelvis_tx	pelvis_ty	pelvis_tz	hip_flexion_r	hip_adduction_r	hip_rotation_r	knee_angle_r	knee_angle_r_beta	ankle_angle_r	subtalar_angle_r	mtp_angle_r	hip_flexion_l	hip_adduction_l	hip_rotation_l	knee_angle_l	knee_angle_l_beta	ankle_angle_l	subtalar_angle_l	mtp_angle_l	L5_S1_Flex_Ext	L5_S1_Lat_Bending	L5_S1_axial_rotation	L4_L5_Flex_Ext	L4_L5_Lat_Bending	L4_L5_axial_rotation	L3_L4_Flex_Ext	L3_L4_Lat_Bending	L3_L4_axial_rotation	L2_L3_Flex_Ext	L2_L3_Lat_Bending	L2_L3_axial_rotation	L1_L2_Flex_Ext	L1_L2_Lat_Bending	L1_L2_axial_rotation	L1_T12_Flex_Ext	L1_T12_Lat_Bending	L1_T12_axial_rotation	Abs_r3	Abs_r2	Abs_r1	Abs_t1	Abs_t2	neck_flexion	neck_bending	neck_rotation	arm_flex_r	arm_add_r	arm_rot_r	elbow_flex_r	pro_sup_r	wrist_flex_r	wrist_dev_r	arm_flex_l	arm_add_l	arm_rot_l	elbow_flex_l	pro_sup_l	wrist_flex_l	wrist_dev_l
9.166667	-0.387129	-0.188915	83.279728	0.259787	0.893191	0.612156	3.604661	-3.030161	7.924748	12.100869	0.211200	41.119560	-1.514063	0.000000	1.048318	2.418591	34.613845	6.951994	0.121335	33.531688	-4.669837	0.000000	-0.303535	-0.311788	1.727630	-0.563696	-0.414678	1.835607	-0.498678	-0.758082	1.835607	-0.346911	-0.758082	1.511676	-0.281863	-0.635798	1.403699	-0.173440	-0.482960	1.295722	-2.168123	-3.527010	9.608558	0.000000	0.000000	-8.017460	3.456042	-1.519081	-6.359993	-121.789717	-94.442053	129.039855	72.755277	-6.024217	29.432099	-221.365429	-51.448473	-308.322955	129.605842	79.655116	4.869165	27.667972
9.183333	-0.357346	-0.175340	83.122895	0.260144	0.893074	0.611926	3.593378	-3.025608	7.532745	12.069393	0.210651	41.129449	-1.102690	0.000000	0.921377	2.370557	34.679003	6.919692	0.120771	33.382144	-4.763404	0.000000	-0.290309	-0.306418	1.718980	-0.539132	-0.407536	1.826416	-0.476948	-0.745025	1.826416	-0.331794	-0.745025	1.504107	-0.269581	-0.624848	1.396671	-0.165882	-0.474642	1.289235	-2.073646	-3.466262	9.560449	0.000000	0.000000	-7.509089	3.803926	-1.447106	-6.507547	-122.586876	-95.173530	128.963769	67.757528	-6.477794	30.073253	-219.986921	-50.580307	-306.737785	129.234968	79.644863	5.515232	28.642638
9.200000	-0.357996	-0.146419	82.931113	0.260631	0.893000	0.611694	3.552485	-3.039287	7.325889	11.970457	0.208924	41.176134	-0.735086	0.000000	0.776513	2.346162	34.660593	6.849513	0.119547	33.286848	-4.916453	0.000000	-0.279725	-0.307955	1.711072	-0.519476	-0.409581	1.818014	-0.459559	-0.748763	1.818014	-0.319697	-0.748763	1.497188	-0.259752	-0.627983	1.390246	-0.159835	-0.477023	1.283304	-1.998044	-3.483653	9.516468	0.000000	0.000000	-6.943351	4.145941	-1.419911	-6.832626	-123.259530	-96.041863	128.868112	63.500403	-6.760212	30.650224	-218.376550	-49.748770	-305.006725	128.814079	79.950921	6.163948	29.581627
9.216667	-0.376064	-0.141434	82.748727	0.261063	0.892919	0.611411	3.493005	-3.068129	7.213969	11.771729	0.205455	41.222590	-0.388628	0.000000	0.669826	2.348823	34.610594	6.772775	0.118207	33.250335	-5.178838	0.000000	-0.264752	-0.310009	1.699204	-0.491671	-0.412312	1.805404	-0.434961	-0.753757	1.805404	-0.302585	-0.753757	1.486803	-0.245849	-0.632171	1.380603	-0.151279	-0.480204	1.274403	-1.891098	-3.506887	9.450462	0.000000	0.000000	-6.332086	4.405791	-1.360143	-7.219832	-123.864382	-96.860753	128.730881	59.595430	-7.266982	31.242981	-216.832263	-49.018006	-303.474077	128.413387	80.336901	6.757106	30.541431
9.233333	-0.410286	-0.119625	82.531353	0.261568	0.892845	0.611098	3.398489	-3.101859	7.288345	11.534479	0.201315	41.278266	-0.141517	0.000000	0.540116	2.364525	34.509381	6.652481	0.116108	33.256226	-5.515673	0.000000	-0.253672	-0.314592	1.689625	-0.471095	-0.418408	1.795227	-0.416758	-0.764900	1.795227	-0.289922	-0.764900	1.478422	-0.235560	-0.641517	1.372821	-0.144948	-0.487304	1.267219	-1.811957	-3.558732	9.397190	0.000000	0.000000	-5.623287	4.632608	-1.268125	-7.705259	-124.367516	-97.791503	128.553719	56.826751	-7.394432	31.759477	-215.238547	-48.418516	-302.075189	128.017154	80.771318	7.288196	31.354322
9.250000	-0.475444	-0.105350	82.279493	0.262134	0.892739	0.610693	3.274857	-3.157142	7.582284	11.236482	0.196114	41.300729	-0.055372	0.000000	0.419433	2.415222	34.345829	6.517509	0.113752	33.298042	-5.912228	0.000000	-0.239312	-0.322779	1.680605	-0.444426	-0.429296	1.785643	-0.393166	-0.784805	1.785643	-0.273510	-0.784805	1.470529	-0.222225	-0.658211	1.365492	-0.136743	-0.499985	1.260454	-1.709381	-3.651343	9.347021	0.000000	0.000000	-4.870557	4.834134	-1.108330	-8.372272	-124.755980	-98.861469	128.359981	55.175593	-7.279987	32.223278	-213.719626	-47.966794	-300.934473	127.670477	81.210791	7.733739	32.064709
9.266667	-0.553151	-0.086029	82.007925	0.262759	0.892594	0.610235	3.122351	-3.213753	8.083652	10.919469	0.190581	41.301498	-0.127219	0.000000	0.293379	2.480175	34.129709	6.369714	0.111172	33.379745	-6.344807	0.000000	-0.225216	-0.333028	1.672823	-0.418249	-0.442928	1.777374	-0.370007	-0.809725	1.777374	-0.257399	-0.809725	1.463720	-0.209136	-0.679112	1.359168	-0.128688	-0.515861	1.254617	-1.608696	-3.767285	9.303738	0.000000	0.000000	-4.021279	5.038625	-0.893712	-9.162040	-125.010512	-100.037829	128.157054	54.674536	-6.905086	32.600423	-212.308480	-47.657572	-300.042408	127.367626	81.605928	8.066145	32.585927
9.283333	-0.666728	-0.065978	81.699181	0.263450	0.892422	0.609755	2.969956	-3.327631	8.479751	10.607217	0.185131	41.370719	0.093053	0.000000	0.170587	2.584859	33.838872	6.215696	0.108484	33.467049	-6.829850	0.000000	-0.211233	-0.349608	1.684547	-0.392281	-0.464979	1.789831	-0.347034	-0.850037	1.789831	-0.241418	-0.850037	1.473979	-0.196151	-0.712921	1.368695	-0.120698	-0.541543	1.263410	-1.508815	-3.954836	9.368946	0.000000	0.000000	-3.075232	5.333876	-0.773271	-9.702202	-125.069220	-100.997932	127.994904	55.360495	-6.129727	32.884383	-211.097270	-47.403324	-299.400390	127.081918	82.167065	8.258112	32.788551
9.300000	-0.775508	-0.030688	81.373467	0.264163	0.892253	0.609301	2.797819	-3.439220	8.968730	10.301358	0.179793	41.462381	0.350887	0.000000	0.038584	2.689246	33.473293	6.067609	0.105900	33.569222	-7.353936	0.000000	-0.200125	-0.365864	1.706036	-0.371652	-0.486598	1.812663	-0.328785	-0.889561	1.812663	-0.228723	-0.889561	1.492782	-0.185836	-0.746069	1.386154	-0.114351	-0.566723	1.279527	-1.429473	-4.138721	9.488461	0.000000	0.000000	-2.023905	5.646792	-0.669547	-10.147003	-125.013234	-101.920639	127.862324	57.283240	-5.008369	33.092976	-210.134560	-47.255211	-299.025163	126.834692	82.764825	8.336012	32.801960
9.316667	-0.878183	0.021714	81.069139	0.264781	0.892114	0.608870	2.597950	-3.553816	9.495735	9.997205	0.174484	41.576700	0.653985	0.000000	-0.097682	2.800379	33.057701	5.945760	0.103773	33.662671	-7.903958	0.000000	-0.188791	-0.379694	1.730156	-0.350604	-0.504992	1.838291	-0.310165	-0.923187	1.838291	-0.215770	-0.923187	1.513887	-0.175312	-0.774271	1.405752	-0.107875	-0.588145	1.297617	-1.348518	-4.295169	9.622611	0.000000	0.000000	-0.977740	5.918313	-0.601385	-10.652480	-124.899239	-102.973855	127.747206	60.876859	-3.478910	33.186973	-209.616870	-47.208241	-299.017836	126.619220	83.383387	8.204226	32.591440
9.333333	-0.971470	0.089225	80.769683	0.265386	0.891973	0.608505	2.390615	-3.665004	10.028574	9.723878	0.169714	41.705369	1.016269	0.000000	-0.238878	2.905544	32.563863	5.851280	0.102124	33.761037	-8.422990	0.000000	-0.180083	-0.393065	1.764253	-0.334432	-0.522776	1.874519	-0.295858	-0.955697	1.874519	-0.205817	-0.955697	1.543721	-0.167225	-0.801537	1.433455	-0.102899	-0.608857	1.323190	-1.286313	-4.446424	9.812245	0.000000	0.000000	0.103773	6.242654	-0.631478	-10.944184	-124.701811	-103.937688	127.674227	64.846561	-1.838566	33.398357	-209.420045	-47.199588	-299.384932	126.445466	84.297586	8.274399	32.446559
